<?xml version="1.0" encoding="utf-8"?>
<!-- Generator: Adobe Illustrator 22.0.1, SVG Export Plug-In . SVG Version: 6.00 Build 0)  -->
<svg version="1.1" id="Layer_1" xmlns="http://www.w3.org/2000/svg" xmlns:xlink="http://www.w3.org/1999/xlink" x="0px" y="0px"
	 viewBox="0 0 512 512" style="enable-background:new 0 0 512 512;" xml:space="preserve">
<style type="text/css">
	.st0{fill:#D6F4FC;}
	.st1{fill:#E8F8FC;}
	.st2{fill:#42434D;}
	.st3{fill:#4D4E59;}
	.st4{fill:#FFFFFF;}
</style>
<path class="st0" d="M336,8.5c18.8,0,34.1,15.3,34.1,34.1v426.7c0,18.8-15.3,34.1-34.1,34.1H101.3c-18.8,0-34.1-15.3-34.1-34.1V42.7
	c0-18.8,15.3-34.1,34.1-34.1H336V8.5z"/>
<path class="st1" d="M337.6,8.6c27.5,1.3,26,42.6-1.5,42.6h-111c-63.6,0-115.2,51.6-115.2,115.2v337.1h-8.5
	c-18.9,0-34.1-15.3-34.1-34.1V42.7c0-18.9,15.3-34.1,34.1-34.1C102.9,8.5,336.4,8.5,337.6,8.6L337.6,8.6z"/>
<path class="st2" d="M370.1,428.8v40.5c0,18.8-15.3,34.1-34.1,34.1H101.3c-18.8,0-34.1-15.3-34.1-34.1v-40.5H370.1z"/>
<path class="st3" d="M109.9,428.8v40.7c0,27.8-42.7,29.2-42.7-0.1v-40.5h42.7C109.9,428.9,109.9,428.8,109.9,428.8z"/>
<path d="M419.2,106.7h-40.5v-64C378.7,19.1,359.5,0,336,0H101.3C77.8,0,58.7,19.1,58.7,42.7v426.7c0,23.5,19.1,42.7,42.7,42.7H336
	c23.5,0,42.7-19.1,42.7-42.7v-88.5c0-4.7-3.8-8.5-8.5-8.5s-8.5,3.8-8.5,8.5v39.5H117.3c-4.7,0-8.5,3.8-8.5,8.5s3.8,8.5,8.5,8.5
	h244.3v32c0,14.1-11.5,25.6-25.6,25.6H101.3c-14.1,0-25.6-11.5-25.6-25.6V42.7c0-14.1,11.5-25.6,25.6-25.6H336
	c14.1,0,25.6,11.5,25.6,25.6v64H227.2V93.9c0-4.7-3.8-8.5-8.5-8.5s-8.5,3.8-8.5,8.5v260.3c0,4.7,3.8,8.5,8.5,8.5s8.5-3.8,8.5-8.5
	V123.7h192c9.4,0,17.1,7.7,17.1,17.1v14.9h-0.4c0.2,0.8,0.2,1.6,0,2.6c0,0,0,0,0,0.1c0,0.7-0.2,1.3-0.5,1.9c0.1,0.4,0,0.9,0,1.3
	c0.1,1,0,2.1-0.4,3c0.1,1,0.2,2,0.4,3c0.2,1.2,0.1,2.2-0.3,3.1c0.1,0.5,0.2,0.9,0.3,1.4c0.1,0.2,0.1,0.4,0.1,0.6h0.8v32H434
	c0,0.1,0,0.2,0,0.3c-0.1,3.4-0.9,6.6-1,10c0,1-0.4,1.9-1,2.7c0,0.1,0,0.2,0,0.3c0.1,1.6-0.5,2.8-1.5,3.6h5.6V307
	c0,9.4-7.7,17.1-17.1,17.1H268.8c-4.7,0-8.5,3.8-8.5,8.5s3.8,8.5,8.5,8.5h150.4c18.8,0,34.1-15.3,34.1-34.1V140.8
	C453.3,122,438,106.7,419.2,106.7z"/>
<rect x="424.5" y="204.7" class="st4" width="11.6" height="17"/>
<path d="M238.9,135.3h36.1v-12.1h-48.1v48.4h12V135.3z"/>
<path d="M389,123.2v12.1H425v36.3h12v-48.4H389z"/>
<path d="M425,319.6H389v12.1h48.1v-48.4h-12V319.6z"/>
<path d="M238.9,283.3h-12v48.4h48.1v-12.1h-36.1V283.3z"/>
<path d="M253.3,149.4v60.5h60.1v-36.3h12v-12.1h-12v-12.1H253.3z M301.4,197.8h-36.1v-36.3h36.1V197.8z"/>
<path d="M409.6,306.7v-60.5h-24v-12.1h-12v12.1h-36.1v12.1h12v12.1h-12v12.1h12v24.2H409.6z M361.5,258.3h36.1v36.3h-36.1V258.3z"/>
<path d="M289.4,234.1h24V222h-60.1v12.1h24v12.1h-12v12.1h12v24.2h-12v12.1h12v12.1h60.1v-12.1h-12v-12.1h-12v12.1h-24v-12.1h12
	v-12.1h-12V234.1z"/>
<path d="M277.3,173.6h12v12.1h-12V173.6z"/>
<path d="M373.5,173.6h12v12.1h-12V173.6z"/>
<path d="M385.6,209.9h24v-60.5h-60.1v60.5h24V222h12V209.9z M361.5,197.8v-36.3h36.1v36.3H361.5z"/>
<path d="M409.6,234.1V222c-2.9,0-21.1,0-24,0v12.1H409.6z"/>
<path d="M373.5,270.4h12v12.1h-12V270.4z"/>
<path d="M325.4,258.3h12v12.1h-12V258.3z"/>
<path d="M301.4,270.4h12c0-2.9,0-21.3,0-24.2h-12V270.4z"/>
<path d="M313.4,234.1h12v12.1h-12V234.1z"/>
<path d="M265.3,258.3h-12v24.2h12C265.3,279.5,265.3,261.2,265.3,258.3z"/>
<path d="M253.3,294.6h12v12.1h-12V294.6z"/>
<path d="M325.4,149.4h12v12.1h-12V149.4z"/>
<path d="M325.4,197.8h12c0-2.9,0-21.3,0-24.2h-12V197.8z"/>
<path d="M337.5,222v-12.1h-12v24.2h48.1V222H337.5z"/>
<rect x="421.3" y="197.8" class="st4" width="14.7" height="33.2"/>
<path d="M229.3,472.5c4.7,0,8.5-3.8,8.5-8.5s-3.8-8.5-8.5-8.5H208c-4.7,0-8.5,3.8-8.5,8.5s3.8,8.5,8.5,8.5H229.3z"/>
</svg>
