<?xml version="1.0" encoding="utf-8"?>
<!-- Generator: Adobe Illustrator 22.0.1, SVG Export Plug-In . SVG Version: 6.00 Build 0)  -->
<svg version="1.1"
	 id="svg887325" xmlns:cc="http://creativecommons.org/ns#" xmlns:dc="http://purl.org/dc/elements/1.1/" xmlns:rdf="http://www.w3.org/1999/02/22-rdf-syntax-ns#" xmlns:svg="http://www.w3.org/2000/svg"
	 xmlns="http://www.w3.org/2000/svg" xmlns:xlink="http://www.w3.org/1999/xlink" x="0px" y="0px" viewBox="0 0 433 250.8"
	 style="enable-background:new 0 0 433 250.8;" xml:space="preserve">
<style type="text/css">
	.st0{fill:#3DB0CB;}
</style>
<g id="logo-group">
	<g id="logo-center">
		<g id="title">
			<path id="path887333" class="st0" d="M106.3,72.2c1.3-3,3.2-5.5,5.8-7.4c2.8-1.9,5.7-2.9,8.7-2.9c2.8,0,5.5,1,8.1,2.9
				c2.6,1.7,4.6,4.1,6.1,7.1c8.2,16.8,16.3,35,24.2,54.6c8,19.4,15.2,37.8,21.6,55.2c3.7-26.7,7.6-53.6,12-80.8
				c4.3-27.1,9.2-53.1,14.5-77.8c0.6-2.8,1.6-5.1,2.9-6.8c1.3-1.9,2.7-3.3,4.2-4.2c1.5-1.1,3-1.8,4.5-2.3c1.7-0.4,3.1-0.6,4.2-0.6
				c3.7,0,6.7,1.1,9,3.2c2.4,1.9,3.6,4.6,3.6,8.1c0,3.9-0.6,10.8-1.9,20.7c-1.3,9.7-3,21.1-5.2,34.2c-2.2,12.9-4.6,26.7-7.4,41.3
				c-2.6,14.6-5.2,28.7-7.8,42.3c-2.6,13.6-5.1,25.9-7.4,37.1c-2.4,11.2-4.3,19.7-5.8,25.5c-1.3,5-3.2,8.7-5.8,11.3
				c-2.6,2.4-6.4,3.6-11.3,3.6c-5.2,0-9.6-2.3-13.2-6.8c-3.4-4.7-7.3-12.1-11.6-22c-4.1-9.9-9-22.5-14.9-37.8
				c-5.8-15.5-13.4-34-22.6-55.6c-9.5,21.5-17.2,40.1-23.3,55.6c-5.8,15.5-10.9,28.2-15.2,38.1c-4.1,9.9-8,17.2-11.6,22
				c-3.7,4.5-8,6.8-12.9,6.8c-8.6,0-14.3-5-17.1-14.9c-1.7-5.8-3.8-14.2-6.1-25.2c-2.4-11.2-4.8-23.6-7.4-37.1
				c-2.4-13.6-4.8-27.6-7.4-42c-2.6-14.6-4.8-28.4-6.8-41.3S9.4,52.1,8.1,42.4c-1.1-9.9-1.6-16.8-1.6-20.7c0-3.7,1.2-6.7,3.6-9
				c2.4-2.4,5.7-3.6,10-3.6c3,0,5.9,1,8.7,2.9c2.8,1.7,4.8,5.4,6.1,11c5.2,24.8,9.7,50.7,13.6,77.8c4.1,27.1,8.4,54.1,12.9,80.8
				c6.7-15.7,13.4-32.4,20-50.1C88.1,113.9,96.4,94.1,106.3,72.2L106.3,72.2z"/>
			<path id="path887335" class="st0" d="M355.5,8.2c7.1,0,14.4,0.6,22,1.9c7.5,1.3,14.4,3.2,20.7,5.8c6.2,2.4,11.4,5.4,15.5,9
				c4.1,3.7,6.1,7.9,6.1,12.6c0,5-1.3,8.7-3.9,11.3c-2.6,2.6-5.8,3.9-9.7,3.9c-3.7,0-7.1-0.6-10.3-1.9c-3-1.3-6.5-2.7-10.3-4.2
				c-3.9-1.5-8.5-2.9-13.9-4.2c-5.4-1.3-12.2-1.9-20.4-1.9c-9,0-17.6,2.2-25.5,6.5c-7.8,4.1-14.6,9.9-20.7,17.4
				c-6,7.3-10.8,16-14.2,26.2s-5.2,21.1-5.2,32.9c0,14.4,1.8,26.9,5.5,37.5c3.7,10.6,8.4,19.3,14.2,26.2c6,6.9,12.7,12.1,20,15.5
				c7.5,3.2,15.1,4.8,22.6,4.8c12.3,0,22-1.7,29.1-5.2c7.3-3.7,13.1-8.3,17.4-13.9c0.2-4.5,0.3-9.9,0.3-16.2s0-13,0-20.4
				c0-2.8-0.2-5-0.6-6.5c-0.4-1.7-1.5-3-3.2-3.9c-1.7-0.9-4.3-1.4-7.8-1.6c-3.2-0.2-7.6-0.3-13.2-0.3c-6.9,0-12.5-0.9-16.8-2.6
				c-4.3-1.9-6.5-5.9-6.5-12c0-4.3,1.1-7.8,3.2-10.3c2.4-2.8,7.1-4.4,14.2-4.8c1.3,0,3.3,0,6.1,0c3-0.2,6.1-0.3,9.4-0.3
				c3.4,0,6.8,0,10,0c3.2,0,5.8,0,7.8,0c6.5,0,11.6,0.6,15.5,1.9c3.9,1.1,7.3,3.7,10.3,7.8c1.5,2.2,2.4,5.9,2.6,11.3
				c0.4,5.4,0.6,11.6,0.6,18.7v83.3c0,5.8-1.6,10.1-4.8,12.9c-3,2.8-6.6,4.2-10.7,4.2c-5,0-9-1.3-12.3-3.9c-3-2.4-4.5-6.2-4.5-11.6
				v-12.6c-5.6,6.5-12.3,11.1-20,13.9c-7.5,2.8-17.1,4.2-28.7,4.2c-11.8,0-23.5-2.4-34.9-7.1c-11.4-4.7-21.5-11.7-30.4-21
				c-8.8-9.5-16-21.2-21.6-35.2c-5.4-14.2-8.1-30.7-8.1-49.4s2.7-35.4,8.1-50.1c5.6-14.6,13.1-27,22.6-37.1
				c9.5-10.3,20.6-18.2,33.3-23.6C327.1,10.9,340.8,8.2,355.5,8.2L355.5,8.2z"/>
		</g>
		<g id="tagline">
		</g>
	</g>
</g>
</svg>
